<svg width="1024" height="1024" viewBox="0 0 1024 1024" fill="none" xmlns="http://www.w3.org/2000/svg">
<path d="M844 0H180C80.5887 0 0 80.5887 0 180V844C0 943.411 80.5887 1024 180 1024H844C943.411 1024 1024 943.411 1024 844V180C1024 80.5887 943.411 0 844 0Z" fill="#134042"/>
<path fill-rule="evenodd" clip-rule="evenodd" d="M625.39 178.24H592.86V617.45C592.6 643.166 582.202 667.739 563.925 685.831C545.649 703.924 520.972 714.072 495.255 714.072C469.538 714.072 444.861 703.924 426.585 685.831C408.308 667.739 397.91 643.166 397.65 617.45V454.78H235V617.45C235.426 686.2 263.036 751.989 311.801 800.452C360.565 848.916 426.524 876.117 495.275 876.117C564.026 876.117 629.985 848.916 678.749 800.452C727.514 751.989 755.124 686.2 755.55 617.45V178.24H625.39ZM365.12 601.18V617.45C365.421 651.767 379.264 684.575 403.636 708.735C428.009 732.894 460.937 746.449 495.255 746.449C529.573 746.449 562.501 732.894 586.874 708.735C611.246 684.575 625.089 651.767 625.39 617.45V324.64H723V617.45C723.199 647.484 717.455 677.26 706.1 705.065C694.744 732.87 678.001 758.154 656.834 779.461C635.667 800.769 610.495 817.679 582.766 829.219C555.037 840.759 525.299 846.699 495.265 846.699C465.231 846.699 435.493 840.759 407.764 829.219C380.035 817.679 354.863 800.769 333.696 779.461C312.529 758.154 295.786 732.87 284.43 705.065C273.075 677.26 267.331 647.484 267.53 617.45V601.18H365.12ZM723 292.11V210.78H625.4V292.11H723ZM365.12 487.31V568.65H267.52V487.31H365.12ZM316 178.24V243.53L381.4 243.31L316 373.44V308.38H250.6L316 178.24Z" fill="white"/>
</svg>
